<svg xmlns="http://www.w3.org/2000/svg" viewBox="0 0 32 32">
  <!-- Maryland Flag Pattern Favicon -->
  
  <!-- Top-left quadrant: Calvert gold/black checkerboard -->
  <g id="calvert-tl">
    <rect x="0" y="0" width="4" height="4" fill="#FDBF0F"/>
    <rect x="4" y="0" width="4" height="4" fill="#000000"/>
    <rect x="8" y="0" width="4" height="4" fill="#FDBF0F"/>
    <rect x="12" y="0" width="4" height="4" fill="#000000"/>
    
    <rect x="0" y="4" width="4" height="4" fill="#000000"/>
    <rect x="4" y="4" width="4" height="4" fill="#FDBF0F"/>
    <rect x="8" y="4" width="4" height="4" fill="#000000"/>
    <rect x="12" y="4" width="4" height="4" fill="#FDBF0F"/>
    
    <rect x="0" y="8" width="4" height="4" fill="#FDBF0F"/>
    <rect x="4" y="8" width="4" height="4" fill="#000000"/>
    <rect x="8" y="8" width="4" height="4" fill="#FDBF0F"/>
    <rect x="12" y="8" width="4" height="4" fill="#000000"/>
    
    <rect x="0" y="12" width="4" height="4" fill="#000000"/>
    <rect x="4" y="12" width="4" height="4" fill="#FDBF0F"/>
    <rect x="8" y="12" width="4" height="4" fill="#000000"/>
    <rect x="12" y="12" width="4" height="4" fill="#FDBF0F"/>
  </g>
  
  <!-- Top-right quadrant: Crossland red/white cross -->
  <g id="crossland-tr">
    <rect x="16" y="0" width="16" height="16" fill="#FFFFFF"/>
    <path d="M20 0 L20 16 L28 16 L28 0 Z M16 4 L32 4 L32 12 L16 12 Z" fill="#EE2737"/>
  </g>
  
  <!-- Bottom-left quadrant: Crossland red/white cross -->
  <g id="crossland-bl">
    <rect x="0" y="16" width="16" height="16" fill="#FFFFFF"/>
    <path d="M4 16 L4 32 L12 32 L12 16 Z M0 20 L16 20 L16 28 L0 28 Z" fill="#EE2737"/>
  </g>
  
  <!-- Bottom-right quadrant: Calvert gold/black checkerboard -->
  <g id="calvert-br">
    <rect x="16" y="16" width="4" height="4" fill="#FDBF0F"/>
    <rect x="20" y="16" width="4" height="4" fill="#000000"/>
    <rect x="24" y="16" width="4" height="4" fill="#FDBF0F"/>
    <rect x="28" y="16" width="4" height="4" fill="#000000"/>
    
    <rect x="16" y="20" width="4" height="4" fill="#000000"/>
    <rect x="20" y="20" width="4" height="4" fill="#FDBF0F"/>
    <rect x="24" y="20" width="4" height="4" fill="#000000"/>
    <rect x="28" y="20" width="4" height="4" fill="#FDBF0F"/>
    
    <rect x="16" y="24" width="4" height="4" fill="#FDBF0F"/>
    <rect x="20" y="24" width="4" height="4" fill="#000000"/>
    <rect x="24" y="24" width="4" height="4" fill="#FDBF0F"/>
    <rect x="28" y="24" width="4" height="4" fill="#000000"/>
    
    <rect x="16" y="28" width="4" height="4" fill="#000000"/>
    <rect x="20" y="28" width="4" height="4" fill="#FDBF0F"/>
    <rect x="24" y="28" width="4" height="4" fill="#000000"/>
    <rect x="28" y="28" width="4" height="4" fill="#FDBF0F"/>
  </g>
</svg>
